<svg width="26" height="23" viewBox="0 0 26 23" fill="none" xmlns="http://www.w3.org/2000/svg">
<path d="M23.5 0.9H2.5C2.07565 0.9 1.66869 1.06857 1.36863 1.36863C1.06857 1.66869 0.9 2.07565 0.9 2.5V20.5C0.9 20.9243 1.06857 21.3313 1.36863 21.6314C1.66869 21.9314 2.07565 22.1 2.5 22.1H23.5C23.9243 22.1 24.3313 21.9314 24.6314 21.6314C24.9314 21.3313 25.1 20.9243 25.1 20.5V2.5C25.1 2.07565 24.9314 1.66869 24.6314 1.36863C24.3313 1.06857 23.9243 0.9 23.5 0.9ZM2.6 20.4V2.6H23.4V20.4H2.6Z" fill="#21209C" stroke="#21209C" stroke-width="0.2"/>
<path d="M16.5144 9.45665L16.5142 9.45686L12.5349 13.4362L9.60565 10.5069L9.60544 10.5067C9.44618 10.3483 9.23075 10.2595 9.00619 10.2595C8.78163 10.2595 8.5662 10.3483 8.40694 10.5067L8.40627 10.5073L3.86877 15.1048L3.83994 15.134V15.1751V17.2976V17.539L4.01065 17.3683L9.03298 12.346L11.358 14.6356L8.61673 17.3769L8.44602 17.5476H8.68744H10.7499H10.7914L10.8207 17.5183L17.0876 11.2513L21.9294 16.0709L22.0999 16.2407V16.0001V13.8851V13.8437L22.0707 13.8144L17.7132 9.45686L17.7129 9.45665C17.5537 9.29834 17.3383 9.20948 17.1137 9.20948C16.8891 9.20948 16.6737 9.29834 16.5144 9.45665Z" fill="#21209C" stroke="#21209C" stroke-width="0.2"/>
</svg>
