<svg width="26" height="26" viewBox="0 0 26 26" fill="none" xmlns="http://www.w3.org/2000/svg">
<path d="M22.61 19.8252C24.1359 18.4652 25 16.6524 25 14.7713C25 12.7721 24.0641 10.9024 22.3646 9.50636C20.7107 8.14807 18.5214 7.39993 16.1998 7.39993C13.8782 7.39993 11.689 8.14807 10.0352 9.50646C8.33579 10.9024 7.3999 12.7721 7.3999 14.7713C7.3999 16.7705 8.33579 18.6402 10.0352 20.0363C11.689 21.3946 13.8782 22.1427 16.1998 22.1427C16.5092 22.1427 16.8204 22.1291 17.1291 22.1019L17.6563 22.559C19.4729 24.1331 21.796 24.9997 24.1997 24.9998H24.9997V23.2969L24.7654 23.0627C23.8411 22.1357 23.1087 21.0355 22.61 19.8252ZM18.7042 21.3498L17.6462 20.4327L17.2934 20.476C16.9306 20.5204 16.5654 20.5426 16.1998 20.5426C12.2299 20.5426 8.99989 17.9536 8.99989 14.7713C8.99989 11.589 12.2299 8.99992 16.1998 8.99992C20.1698 8.99992 23.3997 11.5889 23.3997 14.7713C23.3997 16.3568 22.6087 17.837 21.1725 18.9392L20.7117 19.2927L20.9243 19.8945C21.36 21.1234 22.0004 22.2699 22.8184 23.2853C21.295 23.031 19.8714 22.3612 18.7042 21.3498Z" fill="#B5B5B5" stroke="#B5B5B5" stroke-width="0.4"/>
<path d="M3.20923 16.0736C3.95808 15.1257 4.54605 14.0612 4.94961 12.9225L5.16061 12.3238L4.70026 11.9705C3.34588 10.9312 2.59998 9.53631 2.59998 8.04278C2.59998 5.04161 5.6504 2.59998 9.39991 2.59998C12.1583 2.59998 14.5382 3.92147 15.6037 5.81495C15.8015 5.80535 16.0002 5.79995 16.1998 5.79995C16.6007 5.79995 16.998 5.8194 17.3915 5.8583C16.9798 4.79156 16.2647 3.81777 15.2816 3.01028C13.7035 1.71394 11.6149 1 9.39991 1C7.18494 1 5.09636 1.71394 3.51817 3.01028C1.89429 4.34422 1 6.13145 1 8.04278C1 9.83276 1.81759 11.5575 3.26248 12.8549C2.79095 13.9896 2.10197 15.0211 1.23435 15.8913L1 16.1256V17.7998H1.79999C3.27933 17.7996 4.73832 17.4551 6.0615 16.7936C5.91641 16.2437 5.83139 15.6796 5.80795 15.1114C5.00485 15.582 4.1252 15.9078 3.20923 16.0736Z" fill="#B5B5B5" stroke="#B5B5B5" stroke-width="0.4"/>
</svg>
