<svg width="20" height="25" viewBox="0 0 20 25" fill="none" xmlns="http://www.w3.org/2000/svg">
<path d="M17.075 7.075L10 0L2.925 7.075C-0.975 10.975 -0.975 17.3125 2.925 21.2125C3.85356 22.142 4.95657 22.8788 6.17071 23.3808C7.38485 23.8827 8.68619 24.1399 10 24.1375C12.5625 24.1375 15.125 23.1625 17.075 21.2125C20.975 17.3125 20.975 10.975 17.075 7.075ZM10 21.65C8 21.65 6.1125 20.875 4.7 19.45C3.275 18.025 2.5 16.15 2.5 14.15C2.5 12.15 3.275 10.2625 4.7 8.85L10 3.5375V21.65Z" fill="#21209C"/>
</svg>
