<svg width="20" height="20" viewBox="0 0 20 20" fill="none" xmlns="http://www.w3.org/2000/svg">
<path d="M10.2795 19.9947H10.1793C8.8052 19.9843 7.44701 19.6997 6.18426 19.1578C4.9215 18.6159 3.77956 17.8275 2.82531 16.8387C1.05579 14.9464 0.0499144 12.4657 0.0018085 9.87541C-0.0462974 7.28509 0.866776 4.76877 2.56482 2.81206C3.65878 1.58607 5.03404 0.644018 6.57243 0.0668393C6.75194 -0.0022336 6.94753 -0.0181793 7.13585 0.0209062C7.32417 0.0599918 7.49726 0.152457 7.63445 0.287258C7.76151 0.416827 7.85099 0.578472 7.89334 0.754932C7.93569 0.931392 7.92932 1.11604 7.87491 1.28916C7.32582 2.79296 7.21703 4.42217 7.56131 5.98562C7.90559 7.54906 8.68865 8.98188 9.81861 10.1159C10.9591 11.2424 12.3953 12.0228 13.961 12.3668C15.5267 12.7108 17.1578 12.6043 18.6654 12.0596C18.8449 11.9965 19.0386 11.9857 19.2239 12.0286C19.4093 12.0715 19.5786 12.1662 19.7121 12.3018C19.8455 12.4374 19.9376 12.6081 19.9776 12.7941C20.0176 12.9801 20.0038 13.1737 19.9378 13.3521C19.426 14.7184 18.6265 15.9587 17.5934 16.989C16.6324 17.9471 15.4915 18.7059 14.2364 19.2217C12.9812 19.7375 11.6365 20.0002 10.2795 19.9947ZM5.43026 2.88219C4.92698 3.23516 4.46636 3.64535 4.05765 4.10452C2.67957 5.68366 1.93704 7.71831 1.97406 9.81388C2.01109 11.9095 2.82503 13.9166 4.25803 15.4461C5.02802 16.2458 5.95052 16.883 6.97099 17.3201C7.99146 17.7572 9.0892 17.9853 10.1993 17.9909H10.2795C11.6082 17.9902 12.9176 17.6725 14.099 17.0644C15.2804 16.4563 16.2997 15.5752 17.0724 14.4943C15.4978 14.6983 13.8973 14.5387 12.3939 14.0278C10.8906 13.5168 9.52433 12.6681 8.40013 11.5468C7.27593 10.4255 6.42368 9.06146 5.90885 7.55943C5.39402 6.05741 5.2303 4.45736 5.43026 2.88219Z" fill="#21209C"/>
</svg>
