<svg width="20" height="20" viewBox="0 0 20 20" fill="none" xmlns="http://www.w3.org/2000/svg">
<path d="M7.49965 14.5017H12.5003C12.819 14.5021 13.1255 14.6241 13.3572 14.8428C13.5889 15.0616 13.7283 15.3605 13.747 15.6786C13.7657 15.9967 13.6622 16.31 13.4576 16.5543C13.2531 16.7987 12.963 16.9557 12.6466 16.9933L12.5003 17.0021H7.49965C7.18101 17.0017 6.87453 16.8797 6.64282 16.661C6.41112 16.4422 6.27169 16.1433 6.25302 15.8252C6.23434 15.5071 6.33784 15.1939 6.54235 14.9495C6.74687 14.7052 7.03697 14.5481 7.35338 14.5105L7.49965 14.5017H12.5003H7.49965ZM4.99931 8.25087H15.0007C15.3193 8.25122 15.6258 8.37323 15.8575 8.59197C16.0892 8.81072 16.2287 9.10968 16.2473 9.42777C16.266 9.74587 16.1625 10.0591 15.958 10.3034C15.7535 10.5478 15.4634 10.7048 15.147 10.7425L15.0007 10.7512H4.99931C4.68066 10.7509 4.37418 10.6288 4.14248 10.4101C3.91078 10.1914 3.77134 9.8924 3.75267 9.57431C3.734 9.25621 3.83749 8.94299 4.04201 8.69864C4.24652 8.45429 4.53662 8.29725 4.85304 8.25962L4.99931 8.25087H15.0007H4.99931ZM1.24879 2H18.7512C19.0699 2.00035 19.3763 2.12237 19.608 2.34111C19.8397 2.55985 19.9792 2.85881 19.9979 3.17691C20.0165 3.495 19.913 3.80822 19.7085 4.05257C19.504 4.29693 19.2139 4.45396 18.8975 4.4916L18.7512 4.50035H1.24879C0.930144 4.49999 0.623661 4.37798 0.391959 4.15924C0.160256 3.9405 0.0208243 3.64154 0.00215035 3.32344C-0.0165236 3.00534 0.0869702 2.69212 0.291486 2.44777C0.496003 2.20342 0.786104 2.04639 1.10252 2.00875L1.24879 2H18.7512H1.24879Z" fill="#B5B5B5"/>
</svg>
