<svg width="26" height="26" viewBox="0 0 26 26" fill="none" xmlns="http://www.w3.org/2000/svg">
<path d="M25 12.9773C25.0122 19.5889 19.6203 24.9953 13.0087 24.9999C10.1531 25.002 7.53017 24.0065 5.46893 22.3429C4.93295 21.9104 4.89288 21.1071 5.37995 20.62L5.92512 20.0749C6.34169 19.6583 7.00672 19.6127 7.46824 19.9789C8.98686 21.1839 10.9087 21.9032 13 21.9032C17.9212 21.9032 21.9032 17.9204 21.9032 13C21.9032 8.07878 17.9204 4.09677 13 4.09677C10.638 4.09677 8.49278 5.01463 6.89993 6.51283L9.35577 8.96867C9.84351 9.45641 9.49807 10.2903 8.80836 10.2903H1.77419C1.3466 10.2903 1 9.94372 1 9.51612V2.48195C1 1.79224 1.8339 1.44681 2.32164 1.9345L4.71061 4.32346C6.86495 2.26464 9.78477 1 13 1C19.6198 1 24.9877 6.36032 25 12.9773ZM16.2462 16.7894L16.7215 16.1783C17.1153 15.672 17.024 14.9424 16.5178 14.5487L14.5484 13.0169V7.96774C14.5484 7.32637 14.0285 6.80645 13.3871 6.80645H12.6129C11.9715 6.80645 11.4516 7.32637 11.4516 7.96774V14.5315L14.6166 16.9931C15.1228 17.3869 15.8524 17.2957 16.2462 16.7894Z" fill="#B5B5B5" stroke="white"/>
</svg>
