<svg width="24" height="25" viewBox="0 0 24 25" fill="none" xmlns="http://www.w3.org/2000/svg">
<path d="M13.9333 0.679081L22.9333 7.97856C23.6093 8.52743 24 9.33407 24 10.1843V22.7558C24 23.351 23.7542 23.9218 23.3166 24.3427C22.879 24.7636 22.2855 25 21.6667 25H17C16.3812 25 15.7877 24.7636 15.3501 24.3427C14.9125 23.9218 14.6667 23.351 14.6667 22.7558V15.7025C14.6667 15.6175 14.6315 15.5359 14.569 15.4758C14.5065 15.4157 14.4217 15.3819 14.3333 15.3819H9.66667C9.57826 15.3819 9.49348 15.4157 9.43096 15.4758C9.36845 15.5359 9.33333 15.6175 9.33333 15.7025V22.7558C9.33333 23.351 9.0875 23.9218 8.64992 24.3427C8.21233 24.7636 7.61884 25 7 25H2.33333C1.71449 25 1.121 24.7636 0.683418 24.3427C0.245833 23.9218 0 23.351 0 22.7558V10.1843C0 9.33407 0.390667 8.52743 1.06667 7.97856L10.0667 0.679081C10.6077 0.240525 11.2925 0 12 0C12.7075 0 13.3923 0.240525 13.9333 0.679081ZM11.3573 2.15129L2.356 9.4482C2.24463 9.53838 2.15506 9.65086 2.09357 9.77778C2.03208 9.9047 2.00015 10.043 2 10.183V22.7545C2 22.9315 2.14933 23.0751 2.33333 23.0751H7C7.08841 23.0751 7.17319 23.0413 7.2357 22.9812C7.29821 22.9211 7.33333 22.8395 7.33333 22.7545V15.7012C7.33333 14.4624 8.37867 13.457 9.66667 13.457H14.3333C15.6213 13.457 16.6667 14.4624 16.6667 15.7012V22.7545C16.6667 22.9315 16.816 23.0751 17 23.0751H21.6667C21.7551 23.0751 21.8399 23.0413 21.9024 22.9812C21.9649 22.9211 22 22.8395 22 22.7545V10.1843C21.9999 10.0443 21.9679 9.90598 21.9064 9.77906C21.8449 9.65214 21.7554 9.53966 21.644 9.44949L12.644 2.15001C12.4637 2.00405 12.2356 1.92401 12 1.92401C11.7644 1.92401 11.5363 2.00405 11.356 2.15001L11.3573 2.15129Z" fill="#B5B5B5"/>
</svg>
