<svg width="24" height="24" viewBox="0 0 24 24" fill="none" xmlns="http://www.w3.org/2000/svg">
<path d="M12 4.20572e-05C10.4235 -0.00414499 8.86187 0.304342 7.40539 0.907652C5.94892 1.51096 4.62655 2.39712 3.5148 3.51484C1.248 5.78164 0 8.79604 0 12C0 15.204 1.248 18.2184 3.5148 20.4852C5.7816 22.752 8.796 24 12 24C15.204 24 18.2184 22.752 20.4852 20.4852C22.752 18.2184 24 15.204 24 12C24 8.79604 22.752 5.78164 20.4852 3.51484C19.3734 2.39712 18.0511 1.51096 16.5946 0.907652C15.1381 0.304342 13.5765 -0.00414499 12 4.20572e-05ZM18.7884 18.7884C16.9752 20.6016 14.5644 21.6 12 21.6C9.4356 21.6 7.0248 20.6016 5.2116 18.7884C3.3984 16.9752 2.4 14.5644 2.4 12C2.4 9.43564 3.3984 7.02484 5.2116 5.21164C6.71605 3.7016 8.68408 2.74062 10.8 2.48284V12C10.8 12.3183 10.9264 12.6235 11.1515 12.8486C11.3765 13.0736 11.6817 13.2 12 13.2H21.5172C21.2594 15.316 20.2984 17.284 18.7884 18.7884ZM13.2 10.8V2.47444C15.3165 2.73614 17.2842 3.6999 18.7884 5.21164C20.301 6.71527 21.2649 8.68324 21.5256 10.8H13.2Z" fill="#B5B5B5"/>
</svg>
