<svg width="24" height="24" viewBox="0 0 24 24" fill="none" xmlns="http://www.w3.org/2000/svg">
<path d="M21.7067 12.6533V12V11.3381L23.4018 9.89404C23.7143 9.62589 23.9193 9.25883 23.9807 8.85773C24.0421 8.45663 23.9559 8.04731 23.7373 7.70212L21.6538 4.26381C21.499 4.00273 21.2763 3.78587 21.0083 3.635C20.7402 3.48413 20.4361 3.40455 20.1264 3.40424C19.9346 3.40281 19.7437 3.43184 19.5614 3.4902L17.4161 4.19505C17.0457 3.9554 16.6593 3.74003 16.2596 3.55037L15.8093 1.38423C15.7286 0.988489 15.5075 0.632999 15.1847 0.379993C14.8619 0.126987 14.4579 -0.00741487 14.0436 0.000315835H9.91189C9.49757 -0.00741487 9.09365 0.126987 8.77085 0.379993C8.44804 0.632999 8.22692 0.988489 8.14619 1.38423L7.69594 3.55037C7.2933 3.73999 6.904 3.95535 6.53058 4.19505L4.4294 3.45581C4.24515 3.40907 4.05434 3.39166 3.86438 3.40424C3.55474 3.40455 3.25063 3.48413 2.98255 3.635C2.71448 3.78587 2.49187 4.00273 2.33705 4.26381L0.253525 7.70212C0.0474563 8.0468 -0.0291179 8.45051 0.0369171 8.84412C0.102952 9.23773 0.307487 9.59673 0.615493 9.85966L2.28408 11.3467V12.6619L0.615493 14.106C0.298787 14.3707 0.0886574 14.7361 0.0223936 15.1374C-0.0438702 15.5387 0.0380176 15.9498 0.253525 16.2979L2.33705 19.7362C2.49187 19.9973 2.71448 20.2141 2.98255 20.365C3.25063 20.5159 3.55474 20.5955 3.86438 20.5958C4.05626 20.5972 4.24711 20.5682 4.4294 20.5098L6.57472 19.805C6.94511 20.0446 7.33148 20.26 7.73125 20.4496L8.18151 22.6158C8.26224 23.0115 8.48336 23.367 8.80616 23.62C9.12896 23.873 9.53288 24.0074 9.9472 23.9997H14.1142C14.5286 24.0074 14.9325 23.873 15.2553 23.62C15.5781 23.367 15.7992 23.0115 15.8799 22.6158L16.3302 20.4496C16.7328 20.26 17.1221 20.0446 17.4956 19.805L19.632 20.5098C19.8143 20.5682 20.0052 20.5972 20.1971 20.5958C20.5067 20.5955 20.8108 20.5159 21.0789 20.365C21.347 20.2141 21.5696 19.9973 21.7244 19.7362L23.7373 16.2979C23.9434 15.9532 24.0199 15.5495 23.9539 15.1559C23.8879 14.7623 23.6833 14.4033 23.3753 14.1403L21.7067 12.6533ZM20.1264 18.8766L17.0983 17.8795C16.3894 18.4641 15.5792 18.9211 14.7058 19.229L14.0789 22.3149H9.91189L9.28507 19.2634C8.41848 18.9467 7.6127 18.4905 6.90137 17.9139L3.86438 18.8766L1.78085 15.4383L4.1822 13.3753C4.01896 12.4855 4.01896 11.5746 4.1822 10.6848L1.78085 8.5617L3.86438 5.12339L6.89255 6.1205C7.60142 5.53589 8.41158 5.07891 9.28507 4.77096L9.91189 1.68509H14.0789L14.7058 4.73658C15.5723 5.05327 16.3781 5.50946 17.0894 6.08612L20.1264 5.12339L22.21 8.5617L19.8086 10.6247C19.9719 11.5145 19.9719 12.4254 19.8086 13.3152L22.21 15.4383L20.1264 18.8766Z" fill="#B5B5B5"/>
<path d="M11.9953 17.1574C10.9477 17.1574 9.92353 16.855 9.05243 16.2883C8.18133 15.7215 7.50239 14.9161 7.10146 13.9737C6.70054 13.0313 6.59564 11.9943 6.80003 10.9938C7.00442 9.99337 7.50891 9.0744 8.24973 8.35312C8.99054 7.63183 9.93439 7.14063 10.9619 6.94163C11.9895 6.74263 13.0545 6.84476 14.0224 7.23512C14.9904 7.62548 15.8177 8.28652 16.3997 9.13466C16.9818 9.9828 17.2924 10.9799 17.2924 12C17.2995 12.6792 17.1673 13.3529 16.9036 13.9818C16.6399 14.6106 16.25 15.1819 15.7567 15.6622C15.2634 16.1425 14.6767 16.5222 14.0308 16.7789C13.3849 17.0356 12.6929 17.1643 11.9953 17.1574ZM11.9953 8.56168C11.5286 8.5511 11.0645 8.6328 10.6312 8.80184C10.1978 8.97088 9.80417 9.22376 9.47405 9.54517C9.14394 9.86658 8.88422 10.2498 8.7106 10.6718C8.53698 11.0937 8.45307 11.5456 8.46394 12C8.45307 12.4544 8.53698 12.9063 8.7106 13.3282C8.88422 13.7501 9.14394 14.1334 9.47405 14.4548C9.80417 14.7762 10.1978 15.0291 10.6312 15.1981C11.0645 15.3672 11.5286 15.4489 11.9953 15.4383C12.4621 15.4489 12.9261 15.3672 13.3595 15.1981C13.7929 15.0291 14.1865 14.7762 14.5166 14.4548C14.8467 14.1334 15.1064 13.7501 15.2801 13.3282C15.4537 12.9063 15.5376 12.4544 15.5267 12C15.5376 11.5456 15.4537 11.0937 15.2801 10.6718C15.1064 10.2498 14.8467 9.86658 14.5166 9.54517C14.1865 9.22376 13.7929 8.97088 13.3595 8.80184C12.9261 8.6328 12.4621 8.5511 11.9953 8.56168Z" fill="#B5B5B5"/>
</svg>
